     <svg width="24" height="24" viewBox="0 0 24 24" fill="none" xmlns="http://www.w3.org/2000/svg">
            <circle cx="12" cy="12" r="12" fill="#8C404E" />
            <path
                d="M4.932 16.524C4.732 16.524 4.52 16.464 4.296 16.344C4.072 16.224 3.864 16.028 3.672 15.756C3.488 15.484 3.336 15.124 3.216 14.676C3.096 14.228 3.036 13.676 3.036 13.02C3.036 12.5 3.1 11.972 3.228 11.436C3.364 10.892 3.572 10.38 3.852 9.9C4.14 9.412 4.508 8.992 4.956 8.64C5.412 8.28 5.964 8.032 6.612 7.896C6.892 7.832 7.208 7.772 7.56 7.716C7.92 7.652 8.284 7.596 8.652 7.548C9.028 7.492 9.38 7.448 9.708 7.416C10.044 7.384 10.328 7.368 10.56 7.368C10.936 7.368 11.204 7.436 11.364 7.572C11.532 7.7 11.616 7.824 11.616 7.944C11.616 8.024 11.584 8.1 11.52 8.172C11.456 8.236 11.332 8.276 11.148 8.292C11.076 8.3 10.924 8.32 10.692 8.352C10.46 8.376 10.18 8.412 9.852 8.46C9.524 8.508 9.18 8.56 8.82 8.616C8.468 8.664 8.124 8.716 7.788 8.772C7.46 8.82 7.176 8.864 6.936 8.904C6.272 9.032 5.748 9.252 5.364 9.564C4.98 9.876 4.7 10.244 4.524 10.668C4.348 11.092 4.236 11.528 4.188 11.976C4.508 11.904 4.856 11.828 5.232 11.748C5.616 11.668 5.984 11.596 6.336 11.532C6.688 11.46 6.992 11.404 7.248 11.364C7.512 11.324 7.688 11.304 7.776 11.304C7.944 11.304 8.048 11.34 8.088 11.412C8.136 11.484 8.16 11.576 8.16 11.688C8.16 11.904 7.808 12.144 7.104 12.408C6.408 12.672 5.42 12.896 4.14 13.08C4.14 13.352 4.144 13.632 4.152 13.92C4.168 14.2 4.192 14.46 4.224 14.7C4.256 14.94 4.296 15.132 4.344 15.276C4.392 15.42 4.456 15.492 4.536 15.492C4.72 15.492 4.96 15.436 5.256 15.324C5.56 15.212 5.876 15.076 6.204 14.916C6.532 14.756 6.832 14.6 7.104 14.448C7.384 14.296 7.588 14.176 7.716 14.088C7.868 13.992 8.032 13.888 8.208 13.776C8.384 13.664 8.516 13.608 8.604 13.608C8.716 13.608 8.772 13.672 8.772 13.8C8.772 13.872 8.708 14.012 8.58 14.22C8.46 14.428 8.284 14.664 8.052 14.928C7.82 15.184 7.544 15.436 7.224 15.684C6.912 15.924 6.56 16.124 6.168 16.284C5.784 16.444 5.372 16.524 4.932 16.524ZM19.7527 16.5C19.7527 16.58 19.7087 16.66 19.6207 16.74C19.5327 16.82 19.3967 16.864 19.2127 16.872C18.9807 16.872 18.7207 16.78 18.4327 16.596C18.1527 16.42 17.8567 16.18 17.5447 15.876C17.2327 15.564 16.9207 15.216 16.6087 14.832C16.2967 14.448 15.9967 14.052 15.7087 13.644C15.4207 13.228 15.1607 12.828 14.9287 12.444C14.7367 13.268 14.5807 13.964 14.4607 14.532C14.3487 15.1 14.2407 15.532 14.1367 15.828C14.0407 16.116 13.9207 16.26 13.7767 16.26C13.6487 16.26 13.5247 16.184 13.4047 16.032C13.2927 15.872 13.2367 15.572 13.2367 15.132C13.2367 14.9 13.2527 14.664 13.2847 14.424C13.3167 14.176 13.3727 13.884 13.4527 13.548C13.5327 13.204 13.6407 12.772 13.7767 12.252C13.6887 12.18 13.6327 12.108 13.6087 12.036C13.5847 11.964 13.5727 11.884 13.5727 11.796C13.5727 11.684 13.6047 11.572 13.6687 11.46C13.7327 11.348 13.8567 11.264 14.0407 11.208C14.3207 10.272 14.5447 9.532 14.7127 8.988C14.8807 8.436 15.0287 8.044 15.1567 7.812C15.2927 7.572 15.4367 7.452 15.5887 7.452C15.9167 7.452 16.0807 7.648 16.0807 8.04C16.0807 8.184 16.0127 8.504 15.8767 9C15.7407 9.488 15.5327 10.24 15.2527 11.256C15.8847 10.8 16.4767 10.332 17.0287 9.852C17.5807 9.372 18.0847 8.916 18.5407 8.484C18.9967 8.044 19.3967 7.652 19.7407 7.308C20.0847 6.964 20.3647 6.692 20.5807 6.492C20.7967 6.292 20.9407 6.192 21.0127 6.192C21.1487 6.192 21.2607 6.236 21.3487 6.324C21.4447 6.412 21.4927 6.512 21.4927 6.624C21.4927 6.76 21.4367 6.892 21.3247 7.02C21.1327 7.244 20.8767 7.536 20.5567 7.896C20.2367 8.256 19.8767 8.644 19.4767 9.06C19.0767 9.468 18.6567 9.868 18.2167 10.26C17.7847 10.652 17.3527 11 16.9207 11.304C16.4887 11.6 16.0847 11.808 15.7087 11.928C15.8207 12.056 15.9327 12.188 16.0447 12.324C16.1567 12.46 16.2607 12.592 16.3567 12.72C16.6447 13.096 16.9727 13.496 17.3407 13.92C17.7167 14.344 18.0967 14.748 18.4807 15.132C18.8647 15.508 19.2127 15.82 19.5247 16.068C19.6767 16.204 19.7527 16.348 19.7527 16.5Z"
                fill="white"
            />
        </svg>